# xmcd
#
# Track frame offsets: 
#        150
#        18976
#        36696
#        51335
#        72017
#        86648
#        107433
#        127719
#        143954
#        162441
#        183815
#        205795
#
# Disc length: 3000 seconds
#
# Revision: 4
# Processed by: cddbd v1.5.2PL0 Copyright (c) Steve Scherf et al.
# Submitted via: ExactAudioCopyFreeDBPlugin 1.0
#
DISCID=9f0bb60c
DTITLE=John Hiatt and The Goners - Beneath This Gruff Exterior {EU,Sanct
DTITLE=uary Records,SANCD181}
DYEAR=2003
DGENRE=Rock
TTITLE0=Uncommon Connection
TTITLE1=How Bad's The Coffee
TTITLE2=The Nagging Dark
TTITLE3=My Baby Blue
TTITLE4=My Dog And Me
TTITLE5=Almost Fed Up With The Blues
TTITLE6=Circle Back
TTITLE7=Window On The World
TTITLE8=Missing Pieces
TTITLE9=Fly Back Home
TTITLE10=The Last Time
TTITLE11=The Most Unoriginal Sin
EXTD=YEAR: 2003
EXTT0=
EXTT1=
EXTT2=
EXTT3=
EXTT4=
EXTT5=
EXTT6=
EXTT7=
EXTT8=
EXTT9=
EXTT10=
EXTT11=
PLAYORDER=
